<svg viewBox="0 0 900 220" xmlns="http://www.w3.org/2000/svg">
  <defs>
    <linearGradient id="bgFill" x1="0%" y1="0%" x2="100%" y2="100%">
      <stop offset="0%" stop-color="#0b1220"/>
      <stop offset="100%" stop-color="#1e1b4b"/>
    </linearGradient>
    <linearGradient id="hexFill2" x1="0%" y1="0%" x2="100%" y2="100%">
      <stop offset="0%" stop-color="#111827"/>
      <stop offset="100%" stop-color="#1e293b"/>
    </linearGradient>
  </defs>

  <rect width="900" height="220" rx="20" fill="url(#bgFill)"/>

  <g transform="translate(0,0)">
    <polygon points="190,110 150,179.3 70,179.3 30,110 70,40.7 150,40.7"
             fill="url(#hexFill2)" stroke="#334155" stroke-width="3"/>
    <circle cx="98" cy="96" r="30" fill="#6366F1" fill-opacity="0.75"/>
    <circle cx="122" cy="96" r="30" fill="#3B82F6" fill-opacity="0.75"/>
    <circle cx="110" cy="128" r="30" fill="#22D3EE" fill-opacity="0.75"/>
    <line x1="98" y1="96" x2="122" y2="96" stroke="#e2e8f0" stroke-width="1.5" stroke-opacity="0.8"/>
    <line x1="98" y1="96" x2="110" y2="128" stroke="#e2e8f0" stroke-width="1.5" stroke-opacity="0.8"/>
    <line x1="122" y1="96" x2="110" y2="128" stroke="#e2e8f0" stroke-width="1.5" stroke-opacity="0.8"/>
    <circle cx="98" cy="96" r="4" fill="#f8fafc"/>
    <circle cx="122" cy="96" r="4" fill="#f8fafc"/>
    <circle cx="110" cy="128" r="4" fill="#f8fafc"/>
    <path d="M30,55 V40.7 H45" fill="none" stroke="#22D3EE" stroke-width="3" stroke-linecap="round"/>
    <path d="M175,165 V179.3 H160" fill="none" stroke="#22D3EE" stroke-width="3" stroke-linecap="round"/>
  </g>

  <text x="235" y="90" font-family="Segoe UI, Helvetica, Arial, sans-serif" font-size="38" font-weight="700" fill="#f8fafc">RAG Retrieval Microservice</text>
  <text x="237" y="125" font-family="Segoe UI, Helvetica, Arial, sans-serif" font-size="17" fill="#a5b4fc">Corpus-agnostic Q&amp;A &#183; Dense + BM25 + Rerank &#183; Cited, Streamed Answers</text>
  <text x="237" y="155" font-family="Segoe UI, Helvetica, Arial, sans-serif" font-size="14" fill="#818cf8">Retrieval quality gated in CI &#8212; the build fails if recall/MRR regress</text>
  <text x="237" y="182" font-family="Segoe UI, Helvetica, Arial, sans-serif" font-size="13" fill="#64748b">FastAPI &#183; Qdrant &#183; Gemini &#183; 46 tests &#183; RAGAS</text>
</svg>
